# xmcd
#
# Track frame offsets:
#	150
#	18604
#	30624
#	45823
#	60643
#	72539
#	88680
#	95214
#	120732
#	131699
#	142138
#
# Disc length: 2123 seconds
#
# Revision: 0
# Processed by: cddbd v1.4PL0 Copyright (c) Steve Scherf et al.
# Submitted via: dBpowerAMP V4.0
#
DISCID=a008490b
DTITLE=The Blackwoods - Together
DYEAR=1900
DGENRE=Gospel
TTITLE0=Champion of Love
TTITLE1=I Believe
TTITLE2=Put your hand in the Hand
TTITLE3=What a Lovely Name
TTITLE4=Have you heard the News 
TTITLE5=The Light
TTITLE6=First Day in Heaven
TTITLE7=J.D. Summer Tribute Medley
TTITLE8=When I wake up to Sleep No More
TTITLE9=Taking it too far
TTITLE10=Plan of Salvation
EXTD=Wayne Galloway
EXTT0=
EXTT1=
EXTT2=
EXTT3=
EXTT4=
EXTT5=
EXTT6=
EXTT7=
EXTT8=
EXTT9=
EXTT10=
PLAYORDER=
